<?xml version="1.0" encoding="iso-8859-1"?>
<!-- Generator: Adobe Illustrator 18.0.0, SVG Export Plug-In . SVG Version: 6.00 Build 0)  -->
<!DOCTYPE svg PUBLIC "-//W3C//DTD SVG 1.1//EN" "http://www.w3.org/Graphics/SVG/1.1/DTD/svg11.dtd">
<svg version="1.1" id="Capa_1" xmlns="http://www.w3.org/2000/svg" xmlns:xlink="http://www.w3.org/1999/xlink" x="0px" y="0px"
	 viewBox="0 0 432.464 432.464" style="enable-background:new 0 0 432.464 432.464;" xml:space="preserve">
<g>
	<path style="fill:#666666;" d="M417.297,363.067L232.809,43.523c-2.895-5.015-7.057-8.561-11.743-10.66v-2.277l-12.349,0.055
		c-8.138,0.52-16.064,4.813-20.723,12.882L3.505,363.067c-9.959,17.249,2.49,38.811,22.407,38.811H394.89
		C414.808,401.878,427.256,380.316,417.297,363.067z"/>
	<path style="fill:#808080;" d="M15.166,363.067L199.655,43.523c9.959-17.249,34.856-17.249,44.815,0l184.489,319.544
		c9.959,17.249-2.49,38.811-22.407,38.811H37.574C17.656,401.878,5.207,380.316,15.166,363.067z"/>
	<polygon style="fill:#F9ED82;" points="48.184,369.878 222.062,68.712 395.939,369.878 	"/>
	<circle style="fill:#666666;" cx="222.062" cy="323.818" r="24"/>
	<path style="fill:#666666;" d="M222.062,148.818L222.062,148.818c-12.982,0-23.251,10.992-22.367,23.944l6.348,93.091
		c0.574,8.424,7.576,14.965,16.02,14.965h0c8.444,0,15.445-6.54,16.02-14.965l6.348-93.091
		C245.312,159.811,235.044,148.818,222.062,148.818z"/>
</g>
<g>
</g>
<g>
</g>
<g>
</g>
<g>
</g>
<g>
</g>
<g>
</g>
<g>
</g>
<g>
</g>
<g>
</g>
<g>
</g>
<g>
</g>
<g>
</g>
<g>
</g>
<g>
</g>
<g>
</g>
</svg>
